<svg version="1" xmlns="http://www.w3.org/2000/svg" width="960" height="960" viewBox="0 0 720.000000 720.000000"><path d="M43.5 1.4c-15.7 3.8-29.4 14.4-37 28.7C-.5 43.4 0 16.4.1 360c0 213.7.3 312.1 1 315.5 3.2 15.1 14.9 30.6 28.6 37.8 13.7 7.2-5.3 6.7 250.6 6.7 126.9 0 230.7-.3 230.7-.6s-.9-1.8-1.9-3.3c-9.7-13.5-13.3-34.2-9-50.9 5.2-20.3 21.5-37.9 41.1-44.2 3.3-1 3.7-1.4 2.8-3-3.1-5.7-5.2-15.2-5.5-25-1-24.5 10.4-45.6 31.5-58 12.5-7.4 30.2-10.7 43.5-8 8.1 1.6 8 1.6 8.2 1 .2-.3 1-3 1.9-6 .9-3 2.1-6.1 2.6-6.8.6-.6.8-1.2.4-1.2-.7 0 3.7-8.1 7.6-13.8 9.3-13.6 26.7-25.1 43.5-28.7 9.6-2 26.9-1.3 34.8 1.4 3.3 1.1 6.3 2.1 6.8 2.1.4 0 .6-96.9.5-215.3l-.3-215.2-2.4-6.5c-5.4-14.4-15.5-25.7-28.6-32-4.4-2.1-10.2-4.3-13-4.9-7.7-1.6-625.3-1.3-632 .3z"/></svg>